<svg xmlns="http://www.w3.org/2000/svg" viewBox="0 0 1200 1000" role="img" aria-labelledby="title desc">
  <title id="title">Color Blocks preview</title>
  <desc id="desc">A stylized Lumix preview card with green gradients, a soft grid, and bold editorial lettering.</desc>
  <defs>
    <linearGradient id="bg" x1="0%" y1="0%" x2="100%" y2="100%">
      <stop offset="0%" stop-color="#fbfdfb"/>
      <stop offset="100%" stop-color="#f0fff2"/>
    </linearGradient>
    <linearGradient id="green" x1="0%" y1="0%" x2="100%" y2="100%">
      <stop offset="0%" stop-color="#0fc84d"/>
      <stop offset="100%" stop-color="#0a8f39"/>
    </linearGradient>
  </defs>
  <rect width="1200" height="1000" fill="url(#bg)"/>
  <rect y="680" width="1200" height="320" fill="#d9ffe0"/>
  <g opacity="0.11" stroke="#85a38b">
    <path d="M0 200H1200"/>
    <path d="M0 400H1200"/>
    <path d="M0 600H1200"/>
    <path d="M0 800H1200"/>
    <path d="M200 0V1000"/>
    <path d="M400 0V1000"/>
    <path d="M600 0V1000"/>
    <path d="M800 0V1000"/>
    <path d="M1000 0V1000"/>
  </g>
  <circle cx="912" cy="252" r="88" fill="#e3ffea"/>
  <path d="M878 238c18-32 52-58 108-74-8 50-28 90-60 120" fill="none" stroke="#10c84c" stroke-width="8" stroke-linecap="round"/>
  <path d="M832 268c30-10 56-10 80 0" fill="none" stroke="#10c84c" stroke-width="8" stroke-linecap="round"/>
  <text x="92" y="766" fill="url(#green)" font-family="Arial, Helvetica, sans-serif" font-size="184" font-weight="900">Color</text>
  <text x="92" y="920" fill="#0a8f39" font-family="Arial, Helvetica, sans-serif" font-size="128" font-weight="800">Blocks</text>
</svg>
