<svg width="1200" height="900" viewBox="0 0 1200 900" fill="none" xmlns="http://www.w3.org/2000/svg">
  <defs>
    <linearGradient id="bg" x1="90" y1="50" x2="1110" y2="850" gradientUnits="userSpaceOnUse">
      <stop stop-color="#FFE7F7"/>
      <stop offset="0.5" stop-color="#FFD7FF"/>
      <stop offset="1" stop-color="#D8E1FF"/>
    </linearGradient>
  </defs>
  <rect width="1200" height="900" rx="44" fill="url(#bg)"/>
  <g opacity="0.34">
    <rect x="0" y="144" width="1200" height="16" fill="#00C2FF"/>
    <rect x="0" y="238" width="1200" height="10" fill="#FF4FD8"/>
    <rect x="0" y="404" width="1200" height="12" fill="#00C2FF"/>
    <rect x="0" y="588" width="1200" height="14" fill="#FF8E0A"/>
  </g>
  <rect x="114" y="126" width="404" height="246" rx="28" fill="white" fill-opacity="0.74" stroke="#E7C8F2"/>
  <text x="154" y="190" fill="#0C1122" font-family="Manrope, sans-serif" font-size="34" font-weight="800">GLITCH SIGNAL</text>
  <text x="154" y="240" fill="#7B698C" font-family="Manrope, sans-serif" font-size="22">RGB shift, scan tears, and broken-broadcast energy.</text>
  <rect x="154" y="292" width="176" height="54" rx="27" fill="#3254F3"/>
  <rect x="158" y="286" width="176" height="54" rx="27" fill="#00C2FF" fill-opacity="0.7"/>
  <text x="212" y="326" fill="white" font-family="Manrope, sans-serif" font-size="22" font-weight="700">Apply</text>
  <g>
    <rect x="424" y="158" width="352" height="532" rx="34" fill="#FFC2F0"/>
    <rect x="450" y="184" width="300" height="480" rx="26" fill="#FFB1E9"/>
    <circle cx="600" cy="322" r="90" fill="#F0D0B8"/>
    <path d="M516 316C528 252 564 220 622 224C676 228 706 266 700 324C676 292 642 272 606 270C570 268 540 282 516 316Z" fill="#071123"/>
    <path d="M474 618C498 530 550 488 624 486C688 484 734 518 758 602V702H474V618Z" fill="#213182"/>
    <rect x="492" y="500" width="264" height="18" rx="9" fill="#00C2FF" fill-opacity="0.9"/>
    <rect x="470" y="538" width="220" height="18" rx="9" fill="#FF4FD8" fill-opacity="0.9"/>
  </g>
  <g opacity="0.82">
    <rect x="410" y="168" width="352" height="10" rx="5" fill="#00C2FF"/>
    <rect x="438" y="226" width="298" height="8" rx="4" fill="#FF4FD8"/>
    <rect x="432" y="340" width="310" height="10" rx="5" fill="#00C2FF"/>
    <rect x="458" y="430" width="270" height="8" rx="4" fill="#FF8E0A"/>
    <rect x="430" y="548" width="322" height="10" rx="5" fill="#00C2FF"/>
  </g>
  <g opacity="0.64">
    <rect x="436" y="170" width="352" height="532" rx="34" fill="#00C2FF" fill-opacity="0.22"/>
    <rect x="410" y="156" width="352" height="532" rx="34" fill="#3254F3" fill-opacity="0.18"/>
  </g>
  <rect x="814" y="140" width="260" height="142" rx="28" fill="white" fill-opacity="0.7" stroke="#E3C8F3"/>
  <text x="850" y="194" fill="#152147" font-family="Manrope, sans-serif" font-size="20" font-weight="700">Channel Shift</text>
  <text x="850" y="228" fill="#7B698C" font-family="Manrope, sans-serif" font-size="18">Split tones and tear the frame.</text>
  <rect x="822" y="320" width="284" height="220" rx="30" fill="white" fill-opacity="0.54" stroke="#E3C8F3"/>
  <rect x="854" y="356" width="212" height="18" rx="9" fill="#00C2FF"/>
  <rect x="842" y="388" width="188" height="18" rx="9" fill="#FF4FD8"/>
  <rect x="874" y="420" width="164" height="18" rx="9" fill="#3254F3"/>
  <rect x="846" y="452" width="198" height="18" rx="9" fill="#FF8E0A"/>
</svg>
