<svg width="1200" height="900" viewBox="0 0 1200 900" fill="none" xmlns="http://www.w3.org/2000/svg">
  <rect width="1200" height="900" rx="44" fill="#E5EDFF"/>
  <rect x="0" y="616" width="1200" height="284" fill="#B8C8FF"/>
  <circle cx="918" cy="198" r="122" fill="#D2DDFF"/>
  <rect x="104" y="124" width="414" height="246" rx="30" fill="#F8FAFF" stroke="#CEDBFF"/>
  <text x="146" y="188" fill="#0C1122" font-family="Manrope, sans-serif" font-size="34" font-weight="800">DUOTONE POSTER</text>
  <text x="146" y="240" fill="#566786" font-family="Manrope, sans-serif" font-size="22">Swap natural tones for clean campaign color pairs.</text>
  <rect x="146" y="292" width="182" height="54" rx="27" fill="#3254F3"/>
  <text x="204" y="326" fill="white" font-family="Manrope, sans-serif" font-size="22" font-weight="700">Preview</text>
  <rect x="420" y="152" width="360" height="542" rx="38" fill="#2442D0"/>
  <rect x="448" y="180" width="304" height="486" rx="28" fill="#3C61FF"/>
  <circle cx="600" cy="324" r="94" fill="#BEE8FF"/>
  <path d="M520 318C532 252 566 220 624 224C676 228 706 268 698 324C678 294 644 274 608 272C572 270 544 284 520 318Z" fill="#0C1122"/>
  <path d="M476 620C500 528 548 486 622 484C688 482 734 516 756 598V704H476V620Z" fill="#0C1122"/>
  <rect x="682" y="508" width="112" height="154" rx="24" fill="#BEE8FF"/>
  <rect x="814" y="138" width="260" height="126" rx="28" fill="#F7FAFF" stroke="#CEDBFF"/>
  <text x="848" y="186" fill="#0C1122" font-family="Manrope, sans-serif" font-size="20" font-weight="700">Shadow / Highlight</text>
  <text x="848" y="220" fill="#5F6F8F" font-family="Manrope, sans-serif" font-size="18">#0C1122 / #BEE8FF</text>
  <rect x="816" y="308" width="284" height="220" rx="30" fill="#F7FAFF" stroke="#CEDBFF"/>
  <rect x="848" y="346" width="212" height="22" rx="11" fill="#2442D0"/>
  <rect x="848" y="388" width="180" height="22" rx="11" fill="#3C61FF"/>
  <rect x="848" y="430" width="148" height="22" rx="11" fill="#A8D6FF"/>
  <rect x="848" y="472" width="118" height="22" rx="11" fill="#C7EBFF"/>
</svg>
