<svg width="1200" height="900" viewBox="0 0 1200 900" fill="none" xmlns="http://www.w3.org/2000/svg">
  <rect width="1200" height="900" rx="44" fill="#1E4EA9"/>
  <g opacity="0.32">
    <path d="M0 86H1200" stroke="#8CB4FF" stroke-width="2"/>
    <path d="M0 176H1200" stroke="#8CB4FF" stroke-width="2"/>
    <path d="M0 266H1200" stroke="#8CB4FF" stroke-width="2"/>
    <path d="M0 356H1200" stroke="#8CB4FF" stroke-width="2"/>
    <path d="M0 446H1200" stroke="#8CB4FF" stroke-width="2"/>
    <path d="M0 536H1200" stroke="#8CB4FF" stroke-width="2"/>
    <path d="M0 626H1200" stroke="#8CB4FF" stroke-width="2"/>
    <path d="M0 716H1200" stroke="#8CB4FF" stroke-width="2"/>
    <path d="M100 0V900" stroke="#8CB4FF" stroke-width="2"/>
    <path d="M220 0V900" stroke="#8CB4FF" stroke-width="2"/>
    <path d="M340 0V900" stroke="#8CB4FF" stroke-width="2"/>
    <path d="M460 0V900" stroke="#8CB4FF" stroke-width="2"/>
    <path d="M580 0V900" stroke="#8CB4FF" stroke-width="2"/>
    <path d="M700 0V900" stroke="#8CB4FF" stroke-width="2"/>
    <path d="M820 0V900" stroke="#8CB4FF" stroke-width="2"/>
    <path d="M940 0V900" stroke="#8CB4FF" stroke-width="2"/>
    <path d="M1060 0V900" stroke="#8CB4FF" stroke-width="2"/>
  </g>
  <rect x="112" y="130" width="414" height="242" rx="30" fill="#245ABD" stroke="#8CB4FF"/>
  <text x="150" y="192" fill="#F4F8FF" font-family="Manrope, sans-serif" font-size="34" font-weight="800">BLUEPRINT DRAFT</text>
  <text x="150" y="242" fill="#BED2FF" font-family="Manrope, sans-serif" font-size="22">Turn an image into clean contour lines and structure.</text>
  <rect x="150" y="294" width="190" height="54" rx="27" fill="#F4F8FF"/>
  <text x="194" y="328" fill="#1E4EA9" font-family="Manrope, sans-serif" font-size="22" font-weight="700">Open</text>
  <g stroke="#F4F8FF" stroke-width="8" stroke-linecap="round" stroke-linejoin="round">
    <rect x="432" y="160" width="348" height="530" rx="34"/>
    <rect x="458" y="186" width="296" height="478" rx="28"/>
    <circle cx="600" cy="324" r="92"/>
    <path d="M520 318C532 252 566 220 624 224C676 228 706 268 698 324C678 294 644 274 608 272C572 270 544 284 520 318Z"/>
    <path d="M476 620C500 528 548 486 622 484C688 482 734 516 756 598V704H476V620Z"/>
    <rect x="682" y="508" width="112" height="154" rx="24"/>
  </g>
  <g opacity="0.54" stroke="#A7C3FF" stroke-width="2">
    <path d="M432 324H780"/>
    <path d="M600 160V690"/>
    <path d="M432 566H780"/>
  </g>
  <rect x="814" y="142" width="264" height="130" rx="28" fill="#245ABD" stroke="#8CB4FF"/>
  <text x="850" y="190" fill="#F4F8FF" font-family="Manrope, sans-serif" font-size="20" font-weight="700">Line Mode</text>
  <text x="850" y="224" fill="#BED2FF" font-family="Manrope, sans-serif" font-size="18">Edge contrast with blueprint grids.</text>
  <rect x="818" y="316" width="286" height="224" rx="30" fill="#245ABD" stroke="#8CB4FF"/>
  <path d="M852 352H1068" stroke="#F4F8FF" stroke-width="6" stroke-linecap="round"/>
  <path d="M852 394H1040" stroke="#BED2FF" stroke-width="6" stroke-linecap="round"/>
  <path d="M852 436H992" stroke="#F4F8FF" stroke-width="6" stroke-linecap="round"/>
</svg>
