<svg width="1200" height="900" viewBox="0 0 1200 900" fill="none" xmlns="http://www.w3.org/2000/svg">
  <defs>
    <linearGradient id="bg" x1="120" y1="80" x2="1020" y2="820" gradientUnits="userSpaceOnUse">
      <stop stop-color="#F7FAFF"/>
      <stop offset="0.55" stop-color="#E6EEFF"/>
      <stop offset="1" stop-color="#D6E5FF"/>
    </linearGradient>
    <linearGradient id="glass" x1="0" y1="0" x2="1" y2="1">
      <stop stop-color="white" stop-opacity="0.92"/>
      <stop offset="1" stop-color="white" stop-opacity="0.45"/>
    </linearGradient>
    <linearGradient id="poster" x1="430" y1="180" x2="760" y2="720" gradientUnits="userSpaceOnUse">
      <stop stop-color="#2D3E7E"/>
      <stop offset="0.55" stop-color="#5B78FF"/>
      <stop offset="1" stop-color="#84D7FF"/>
    </linearGradient>
    <linearGradient id="shirt" x1="430" y1="520" x2="770" y2="780" gradientUnits="userSpaceOnUse">
      <stop stop-color="#0D152E"/>
      <stop offset="1" stop-color="#365CFF"/>
    </linearGradient>
    <linearGradient id="hill" x1="220" y1="480" x2="1040" y2="860" gradientUnits="userSpaceOnUse">
      <stop stop-color="#CAD9FF"/>
      <stop offset="1" stop-color="#91A7FF"/>
    </linearGradient>
  </defs>
  <rect width="1200" height="900" rx="44" fill="url(#bg)"/>
  <g opacity="0.42">
    <path d="M0 94H1200" stroke="#B9C9F5" stroke-width="1.5"/>
    <path d="M0 174H1200" stroke="#B9C9F5" stroke-width="1.5"/>
    <path d="M0 254H1200" stroke="#B9C9F5" stroke-width="1.5"/>
    <path d="M0 334H1200" stroke="#B9C9F5" stroke-width="1.5"/>
    <path d="M0 414H1200" stroke="#B9C9F5" stroke-width="1.5"/>
    <path d="M0 494H1200" stroke="#B9C9F5" stroke-width="1.5"/>
    <path d="M0 574H1200" stroke="#B9C9F5" stroke-width="1.5"/>
    <path d="M0 654H1200" stroke="#B9C9F5" stroke-width="1.5"/>
    <path d="M0 734H1200" stroke="#B9C9F5" stroke-width="1.5"/>
    <path d="M84 0V900" stroke="#B9C9F5" stroke-width="1.5"/>
    <path d="M244 0V900" stroke="#B9C9F5" stroke-width="1.5"/>
    <path d="M404 0V900" stroke="#B9C9F5" stroke-width="1.5"/>
    <path d="M564 0V900" stroke="#B9C9F5" stroke-width="1.5"/>
    <path d="M724 0V900" stroke="#B9C9F5" stroke-width="1.5"/>
    <path d="M884 0V900" stroke="#B9C9F5" stroke-width="1.5"/>
    <path d="M1044 0V900" stroke="#B9C9F5" stroke-width="1.5"/>
  </g>
  <circle cx="930" cy="206" r="120" fill="#EDF3FF"/>
  <path d="M54 694C194 546 360 492 512 520C660 548 768 584 974 482C1068 436 1126 424 1180 430V900H54V694Z" fill="url(#hill)"/>
  <path d="M84 786C230 692 424 664 652 694C822 718 958 760 1118 718L1200 900H0L84 786Z" fill="#EAF1FF"/>
  <rect x="98" y="114" width="430" height="260" rx="30" fill="url(#glass)" stroke="#D7E1F8"/>
  <text x="140" y="192" fill="#0C1122" font-family="Manrope, sans-serif" font-size="34" font-weight="800">LUMIX DEMO</text>
  <text x="140" y="244" fill="#647391" font-family="Manrope, sans-serif" font-size="22">Upload once, preview live, export clean PNG assets.</text>
  <rect x="140" y="286" width="180" height="54" rx="27" fill="#365CFF"/>
  <text x="192" y="321" fill="white" font-family="Manrope, sans-serif" font-size="22" font-weight="700">Edit</text>
  <rect x="340" y="286" width="160" height="54" rx="27" fill="white" fill-opacity="0.86" stroke="#D0DBF6"/>
  <text x="382" y="321" fill="#182243" font-family="Manrope, sans-serif" font-size="22" font-weight="700">Save</text>
  <rect x="420" y="154" width="360" height="548" rx="38" fill="url(#poster)"/>
  <rect x="450" y="184" width="300" height="488" rx="28" fill="white" fill-opacity="0.16"/>
  <circle cx="598" cy="328" r="92" fill="#F0D0B8"/>
  <path d="M522 314C532 254 566 220 622 224C670 228 702 270 696 324C680 288 648 268 610 266C574 264 542 280 522 314Z" fill="#0E1633"/>
  <path d="M476 620C500 530 548 484 622 482C686 480 730 514 754 598V702H476V620Z" fill="url(#shirt)"/>
  <rect x="684" y="520" width="118" height="150" rx="24" fill="white" fill-opacity="0.2"/>
  <rect x="812" y="134" width="250" height="124" rx="26" fill="white" fill-opacity="0.72" stroke="#D3DDF6"/>
  <text x="850" y="186" fill="#182243" font-family="Manrope, sans-serif" font-size="20" font-weight="700">Live Effect</text>
  <text x="850" y="220" fill="#6C7893" font-family="Manrope, sans-serif" font-size="18">Duotone poster preview</text>
  <rect x="812" y="300" width="264" height="208" rx="32" fill="white" fill-opacity="0.56" stroke="#D8E2FA"/>
  <rect x="846" y="340" width="196" height="18" rx="9" fill="#D9E4FF"/>
  <rect x="846" y="378" width="146" height="18" rx="9" fill="#E3EBFF"/>
  <rect x="846" y="416" width="170" height="18" rx="9" fill="#D9E4FF"/>
  <rect x="846" y="454" width="116" height="18" rx="9" fill="#E3EBFF"/>
</svg>
