<svg width="1200" height="900" viewBox="0 0 1200 900" fill="none" xmlns="http://www.w3.org/2000/svg">
  <rect width="1200" height="900" rx="44" fill="#E6EEFF"/>
  <g opacity="0.34">
    <path d="M0 90H1200" stroke="#B9C7EC" stroke-width="2"/>
    <path d="M0 210H1200" stroke="#B9C7EC" stroke-width="2"/>
    <path d="M0 330H1200" stroke="#B9C7EC" stroke-width="2"/>
    <path d="M0 450H1200" stroke="#B9C7EC" stroke-width="2"/>
    <path d="M0 570H1200" stroke="#B9C7EC" stroke-width="2"/>
    <path d="M0 690H1200" stroke="#B9C7EC" stroke-width="2"/>
    <path d="M150 0V900" stroke="#B9C7EC" stroke-width="2"/>
    <path d="M300 0V900" stroke="#B9C7EC" stroke-width="2"/>
    <path d="M450 0V900" stroke="#B9C7EC" stroke-width="2"/>
    <path d="M600 0V900" stroke="#B9C7EC" stroke-width="2"/>
    <path d="M750 0V900" stroke="#B9C7EC" stroke-width="2"/>
    <path d="M900 0V900" stroke="#B9C7EC" stroke-width="2"/>
    <path d="M1050 0V900" stroke="#B9C7EC" stroke-width="2"/>
  </g>
  <rect x="120" y="128" width="390" height="240" rx="28" fill="#F7FAFF" stroke="#D1DDF8"/>
  <rect x="156" y="164" width="108" height="36" rx="10" fill="#0F1732"/>
  <rect x="156" y="224" width="260" height="24" rx="8" fill="#B8C7EB"/>
  <rect x="156" y="266" width="196" height="24" rx="8" fill="#D4DEF7"/>
  <rect x="156" y="306" width="118" height="34" rx="17" fill="#3B5EFF"/>
  <g>
    <rect x="420" y="150" width="360" height="540" rx="24" fill="#7CA0FF"/>
    <rect x="450" y="180" width="300" height="480" rx="18" fill="#5A78FF"/>
    <rect x="528" y="246" width="42" height="42" fill="#0E1530"/>
    <rect x="570" y="246" width="42" height="42" fill="#17244E"/>
    <rect x="612" y="246" width="42" height="42" fill="#203162"/>
    <rect x="654" y="246" width="42" height="42" fill="#2B427B"/>
    <rect x="504" y="288" width="42" height="42" fill="#F0D0B8"/>
    <rect x="546" y="288" width="42" height="42" fill="#F0D0B8"/>
    <rect x="588" y="288" width="42" height="42" fill="#E0BC9D"/>
    <rect x="630" y="288" width="42" height="42" fill="#E0BC9D"/>
    <rect x="672" y="288" width="42" height="42" fill="#D4AE8A"/>
    <rect x="504" y="330" width="42" height="42" fill="#F0D0B8"/>
    <rect x="546" y="330" width="42" height="42" fill="#F0D0B8"/>
    <rect x="588" y="330" width="42" height="42" fill="#F0D0B8"/>
    <rect x="630" y="330" width="42" height="42" fill="#E6C6A6"/>
    <rect x="672" y="330" width="42" height="42" fill="#0E1530"/>
    <rect x="486" y="498" width="60" height="60" fill="#0E1530"/>
    <rect x="546" y="498" width="60" height="60" fill="#152147"/>
    <rect x="606" y="498" width="60" height="60" fill="#26429F"/>
    <rect x="666" y="498" width="60" height="60" fill="#4A6AFF"/>
    <rect x="486" y="558" width="60" height="60" fill="#10235D"/>
    <rect x="546" y="558" width="60" height="60" fill="#173178"/>
    <rect x="606" y="558" width="60" height="60" fill="#3054D2"/>
    <rect x="666" y="558" width="60" height="60" fill="#75C7FF"/>
  </g>
  <rect x="818" y="132" width="258" height="130" rx="28" fill="#F7FAFF" stroke="#D1DDF8"/>
  <rect x="852" y="172" width="118" height="22" rx="8" fill="#203162"/>
  <rect x="852" y="212" width="176" height="18" rx="8" fill="#B8C7EB"/>
  <rect x="818" y="314" width="276" height="214" rx="28" fill="#F7FAFF" stroke="#D1DDF8"/>
  <g opacity="0.72">
    <rect x="854" y="350" width="36" height="36" fill="#3153D6"/>
    <rect x="890" y="350" width="36" height="36" fill="#5D7AFF"/>
    <rect x="926" y="350" width="36" height="36" fill="#7CA0FF"/>
    <rect x="962" y="350" width="36" height="36" fill="#AFBEF0"/>
    <rect x="998" y="350" width="36" height="36" fill="#D7E2FF"/>
    <rect x="854" y="386" width="36" height="36" fill="#0E1530"/>
    <rect x="890" y="386" width="36" height="36" fill="#17244E"/>
    <rect x="926" y="386" width="36" height="36" fill="#26429F"/>
    <rect x="962" y="386" width="36" height="36" fill="#4A6AFF"/>
    <rect x="998" y="386" width="36" height="36" fill="#75C7FF"/>
  </g>
</svg>
