<svg xmlns="http://www.w3.org/2000/svg" viewBox="0 0 1200 1000" role="img" aria-labelledby="title desc">
  <title id="title">Glitch Blocks preview</title>
  <desc id="desc">A stylized Lumix preview card with channel shifted lettering and blue glow.</desc>
  <defs>
    <linearGradient id="bg" x1="50%" y1="0%" x2="50%" y2="100%">
      <stop offset="0%" stop-color="#f7f9ff"/>
      <stop offset="100%" stop-color="#e9eeff"/>
    </linearGradient>
    <linearGradient id="glow" x1="50%" y1="0%" x2="50%" y2="100%">
      <stop offset="0%" stop-color="#86a5ff" stop-opacity="0.1"/>
      <stop offset="100%" stop-color="#4a7dff" stop-opacity="0.38"/>
    </linearGradient>
  </defs>
  <rect width="1200" height="1000" fill="url(#bg)"/>
  <rect y="710" width="1200" height="290" fill="url(#glow)"/>
  <g opacity="0.11" stroke="#7a89af">
    <path d="M0 150H1200"/>
    <path d="M0 300H1200"/>
    <path d="M0 450H1200"/>
    <path d="M0 600H1200"/>
    <path d="M150 0V1000"/>
    <path d="M300 0V1000"/>
    <path d="M450 0V1000"/>
    <path d="M600 0V1000"/>
    <path d="M750 0V1000"/>
    <path d="M900 0V1000"/>
    <path d="M1050 0V1000"/>
  </g>
  <text x="98" y="742" fill="#ff53d4" font-family="Arial, Helvetica, sans-serif" font-size="190" font-weight="900" opacity="0.8">Glitch</text>
  <text x="116" y="742" fill="#31d0ff" font-family="Arial, Helvetica, sans-serif" font-size="190" font-weight="900" opacity="0.8">Glitch</text>
  <text x="106" y="742" fill="#4c78ff" font-family="Arial, Helvetica, sans-serif" font-size="190" font-weight="900">Glitch</text>
  <g fill="#0d1535">
    <rect x="820" y="160" width="250" height="18" rx="9"/>
    <rect x="760" y="214" width="320" height="12" rx="6"/>
    <rect x="844" y="270" width="196" height="16" rx="8"/>
    <rect x="734" y="332" width="340" height="14" rx="7"/>
  </g>
  <g fill="#4c78ff">
    <rect x="120" y="126" width="160" height="10" rx="5"/>
    <rect x="120" y="160" width="210" height="10" rx="5"/>
    <rect x="120" y="194" width="140" height="10" rx="5"/>
  </g>
</svg>
